# Exported from ProBuilder
# http://www.procore3d.com/probuilder
# 10/16/2018 6:21:22 PM

mtllib ./CubePonteTamanho.mtl
o CubePonteTamanho

g Cube
v -46.653 6.545 83.606
v -47.653 6.545 83.606
v -46.653 7.545 83.606
v -47.653 7.545 83.606
v -47.653 6.545 83.606
v -47.653 6.545 70.48194
v -47.653 7.545 83.606
v -47.653 7.545 70.48194
v -47.653 6.545 70.48194
v -46.653 6.545 70.48194
v -47.653 7.545 70.48194
v -46.653 7.545 70.48194
v -46.653 6.545 70.48194
v -46.653 6.545 83.606
v -46.653 7.545 70.48194
v -46.653 7.545 83.606
v -46.653 7.545 83.606
v -47.653 7.545 83.606
v -46.653 7.545 70.48194
v -47.653 7.545 70.48194
v -46.653 6.545 70.48194
v -47.653 6.545 70.48194
v -46.653 6.545 83.606
v -47.653 6.545 83.606

vn 0 0 1
vn 0 0 1
vn 0 0 1
vn 0 0 1
vn -1 0 0
vn -1 0 0
vn -1 0 0
vn -1 0 0
vn 0 0 -1
vn 0 0 -1
vn 0 0 -1
vn 0 0 -1
vn 1 0 0
vn 1 0 0
vn 1 0 0
vn 1 0 0
vn 0 1 0
vn 0 1 0
vn 0 1 0
vn 0 1 0
vn 0 -1 0
vn 0 -1 0
vn 0 -1 0
vn 0 -1 0

vt 0 0
vt -1 0
vt 0 1
vt -1 1
vt 0 0
vt -13.12406 0
vt 0 1
vt -13.12406 1
vt 1 0
vt 0 0
vt 1 1
vt 0 1
vt 13.12406 0
vt 0 0
vt 13.12406 1
vt 0 1
vt 0 0
vt 1 0
vt 0 -13.12406
vt 1 -13.12406
vt 0 -13.12406
vt -1 -13.12406
vt 0 0
vt -1 0

g Cube
usemtl Default_Prototype
f 3/3/3 4/4/4 2/2/2 1/1/1
f 7/7/7 8/8/8 6/6/6 5/5/5
f 11/11/11 12/12/12 10/10/10 9/9/9
f 15/15/15 16/16/16 14/14/14 13/13/13
f 19/19/19 20/20/20 18/18/18 17/17/17
f 23/23/23 24/24/24 22/22/22 21/21/21

